<svg width="112" height="20" viewBox="0 0 112 20" fill="none" xmlns="http://www.w3.org/2000/svg">
<path d="M17 17.777H23.8418C27.2143 17.777 29.15 15.9163 29.15 13.3713C29.15 11.0954 27.5493 9.66531 25.703 9.58073V9.42696C27.3781 9.06558 28.5544 7.8123 28.5544 6.01312C28.5544 3.63727 26.7825 2.0303 23.3579 2.0303H17V17.777ZM20.6852 14.7092V10.957H23.0303C24.4374 10.957 25.301 11.7259 25.301 12.9331C25.301 14.0479 24.5565 14.7092 22.9633 14.7092H20.6852ZM20.6852 8.5043V5.05201H22.7846C24.013 5.05201 24.7948 5.70556 24.7948 6.75124C24.7948 7.85843 23.9312 8.5043 22.7251 8.5043H20.6852Z" fill="#040C34"/>
<path d="M38.2997 12.6793C38.2997 14.0556 37.451 14.8245 36.3715 14.8245C35.2548 14.8245 34.5698 14.0403 34.5624 12.7562V5.96698H30.9219V13.4943C30.9293 16.1624 32.5002 17.9308 34.8527 17.9308C36.5651 17.9308 37.8381 17.0235 38.3444 15.578H38.4635V17.777H41.9328V5.96698H38.2997V12.6793Z" fill="#040C34"/>
<path d="M44.25 17.777H47.8905V5.96698H44.25V17.777ZM46.074 4.59068C47.1088 4.59068 47.9427 3.78336 47.9427 2.7915C47.9427 1.79964 47.1088 1 46.074 1C45.0466 1 44.2053 1.79964 44.2053 2.7915C44.2053 3.78336 45.0466 4.59068 46.074 4.59068Z" fill="#040C34"/>
<path d="M53.8483 2.0303H50.2077V17.777H53.8483V2.0303Z" fill="#040C34"/>
<path d="M60.342 17.9462C62.0693 17.9462 63.0966 16.9543 63.5582 15.8625H63.6699V17.777H67.2732V2.0303H63.6327V7.98914H63.5582C63.1264 6.90502 62.1288 5.81321 60.3272 5.81321C57.9374 5.81321 55.7709 7.71235 55.7709 11.8797C55.7709 15.9009 57.8182 17.9462 60.342 17.9462ZM61.6077 15.0167C60.2602 15.0167 59.5082 13.7788 59.5082 11.872C59.5082 9.97286 60.2527 8.75034 61.6077 8.75034C62.9403 8.75034 63.7146 9.94211 63.7146 11.872C63.7146 13.7865 62.9329 15.0167 61.6077 15.0167Z" fill="#040C34"/>
<path d="M72.7991 17.9769C74.3923 17.9769 75.4942 17.3388 76.1195 16.1316H76.2089V17.777H79.6335V9.74989C79.6335 7.25102 77.482 5.81321 74.571 5.81321C71.4963 5.81321 69.7542 7.41248 69.4638 9.56535L72.8215 9.68837C72.9778 8.93487 73.5809 8.47354 74.5412 8.47354C75.4346 8.47354 76.0004 8.91949 76.0004 9.71144V9.74989C76.0004 10.4726 75.2411 10.6264 73.2905 10.8033C70.9752 11.0032 69.0395 11.8874 69.0395 14.5016C69.0395 16.839 70.6104 17.9769 72.7991 17.9769ZM73.9233 15.5165C73.082 15.5165 72.4865 15.1013 72.4865 14.3171C72.4865 13.5559 73.0672 13.0945 74.102 12.9331C74.7795 12.8331 75.6133 12.6793 76.0228 12.4564V13.5789C76.0228 14.7322 75.0847 15.5165 73.9233 15.5165Z" fill="#040C34"/>
<path d="M81.8595 17.777H85.4628V15.8625H85.5745C86.0361 16.9543 87.0635 17.9462 88.7907 17.9462C91.3219 17.9462 93.3618 15.9009 93.3618 11.8797C93.3618 7.71235 91.2028 5.81321 88.813 5.81321C87.0039 5.81321 86.0137 6.90502 85.5745 7.98914H85.5V2.0303H81.8595V17.777ZM85.4256 11.872C85.4256 9.94211 86.1999 8.75034 87.5325 8.75034C88.88 8.75034 89.6245 9.97286 89.6245 11.872C89.6245 13.7788 88.88 15.0167 87.5325 15.0167C86.1999 15.0167 85.4256 13.7865 85.4256 11.872Z" fill="#040C34"/>
<path d="M98.9101 2.0303H95.2696V17.777H98.9101V2.0303Z" fill="#040C34"/>
<path d="M106.573 18C109.573 18 111.546 16.5007 111.963 14.1787L108.62 14.0787C108.337 14.863 107.593 15.2858 106.64 15.2858C105.24 15.2858 104.376 14.3247 104.376 12.8792V12.7793H112V11.8412C112 7.9507 109.707 5.81321 106.461 5.81321C103.007 5.81321 100.788 8.25825 100.788 11.9181C100.788 15.701 102.977 18 106.573 18ZM104.376 10.5957C104.429 9.41927 105.329 8.52736 106.535 8.52736C107.734 8.52736 108.598 9.38851 108.613 10.5957H104.376Z" fill="#040C34"/>
<path d="M12.8372 8.14395C12.608 7.74661 12.1726 7.50001 11.7 7.50001H8.56297L9.09553 1.35382C9.14472 0.785576 8.788 0.257648 8.2281 0.0696406C7.66886 -0.117742 7.04713 0.0824531 6.71832 0.556709L0.218324 9.93168C-0.0476478 10.3153 -0.0723884 10.8084 0.153893 11.2149C0.379889 11.6214 0.820386 11.875 1.29996 11.875H4.44616L3.90374 18.6541C3.85771 19.2279 4.22524 19.7577 4.79399 19.9374C4.92761 19.9798 5.06472 20 5.19992 20C5.63855 20 6.0597 19.7855 6.3022 19.4125L12.8022 9.41258C13.053 9.02711 13.066 8.54156 12.8372 8.14395Z" fill="#0063ED"/>
<path d="M12.8372 8.14395C12.608 7.74661 12.1726 7.50001 11.7 7.50001H8.56297L9.09553 1.35382C9.14472 0.785576 8.788 0.257648 8.2281 0.0696406C7.66886 -0.117742 7.04713 0.0824531 6.71832 0.556709L0.218324 9.93168C-0.0476478 10.3153 -0.0723884 10.8084 0.153893 11.2149C0.379889 11.6214 0.820386 11.875 1.29996 11.875H4.44616L3.90374 18.6541C3.85771 19.2279 4.22524 19.7577 4.79399 19.9374C4.92761 19.9798 5.06472 20 5.19992 20C5.63855 20 6.0597 19.7855 6.3022 19.4125L12.8022 9.41258C13.053 9.02711 13.066 8.54156 12.8372 8.14395Z" fill="url(#paint0_linear)"/>
<defs>
<linearGradient id="paint0_linear" x1="1.93452" y1="8.0597" x2="10.1408" y2="16.4915" gradientUnits="userSpaceOnUse">
<stop offset="0.00608769" stop-color="#317DF7"/>
<stop offset="0.992537" stop-color="#0031F5"/>
</linearGradient>
</defs>
</svg>
